<svg xmlns="http://www.w3.org/2000/svg" viewBox="0 0 800 520">
  <rect width="800" height="520" rx="36" fill="#07111D"/>
  <rect x="72" y="88" width="656" height="344" rx="26" fill="#11243C" stroke="#214A6C" stroke-width="2"/>
  <rect x="118" y="130" width="228" height="170" rx="20" fill="#0E2131"/>
  <rect x="146" y="158" width="112" height="16" rx="8" fill="#2EA3FF"/>
  <rect x="146" y="190" width="168" height="12" rx="6" fill="#4F6479"/>
  <circle cx="292" cy="246" r="30" fill="#5DE3FF" opacity="0.9"/>
  <rect x="384" y="132" width="286" height="112" rx="20" fill="#12263D"/>
  <path d="M420 204L470 168L520 192L562 162L650 206" stroke="#2EA3FF" stroke-width="10" fill="none" stroke-linecap="round" stroke-linejoin="round"/>
  <rect x="118" y="332" width="552" height="60" rx="20" fill="#0A1B2A"/>
  <rect x="148" y="352" width="160" height="12" rx="6" fill="#7FD8FF"/>
  <rect x="332" y="352" width="120" height="12" rx="6" fill="#566D81"/>
  <rect x="492" y="344" width="138" height="28" rx="14" fill="#2EA3FF"/>
</svg>